# xmcd
#
# Track frame offsets: 
#        150
#        14610
#        43255
#        60862
#        77522
#        94762
#        114880
#        127610
#        144725
#        177807
#
# Disc length: 2580 seconds
#
# Revision: 5
# Processed by: cddbd v1.5.2PL0 Copyright (c) Steve Scherf et al.
# Submitted via: ExactAudioCopy v0.95b4
#
DISCID=730a120a
DTITLE=Johnny Winter - The Progressive Blues Experiment
DYEAR=1969
DGENRE=Rock
TTITLE0=Rollin' and Tumblin'
TTITLE1=Tribute to Muddy
TTITLE2=I Got Love if You Want It
TTITLE3=Bad Luck and Trouble
TTITLE4=Help Me
TTITLE5=Mean Town Blues
TTITLE6=Broke Down Engine
TTITLE7=Black Cat Bone
TTITLE8=It's My Own Fault
TTITLE9=Forty-Four
EXTD=Johnny Winter: guitar, vocals, National steel-standard guitar (tr
EXTD=acks 4,7), mandolin (4), harmonica (4]\nTommy Shannon (ex 4,7): b
EXTD=ass guitar\n"Uncle" John "Red" Turner (ex 4,7): drums\nRecorded a
EXTD=t the Vulcan Gas Company nightclub (without audience), Austin US-
EXTD=TX, 1967 or 1968, by Rim Kelley.\nProduced by Bill Josey and Rim 
EXTD=Kelley.\nOriginally released as Sonobeat LP RS-1002 (promo only, 
EXTD=1968) and Imperial LP-12431 (1969-05).\nRemastered by Evren Gökna
EXTD=r at Capitol Mastering, Hollywood US-CA.\nReissue produced by Chr
EXTD=is Clough.\nCD: EMI/Capitol 66568 (2005-02-15), UPC 724386656827.
EXTT0=(McKinley Morganfield [Muddy Waters])
EXTT1=(Johnny Winter)
EXTT2=(James Moore [Slim Harpo])
EXTT3=(Johnny Winter)
EXTT4=(Ralph Bass/Willie Dixon/Sonny Boy Williamson [II])
EXTT5=(Johnny Winter)
EXTT6=(Andy Fernbach - arr. Johnny Winter)
EXTT7=(Johnny Winter)
EXTT8=(B.B. King/Jules Taub)
EXTT9=(Chester Burnett [Howlin' Wolf])
PLAYORDER=
